<svg xmlns="http://www.w3.org/2000/svg" xmlns:xlink="http://www.w3.org/1999/xlink" width="1920" zoomAndPan="magnify" viewBox="0 0 1440 809.999993" height="1080" preserveAspectRatio="xMidYMid meet" version="1.0"><rect x="-144" width="1728" fill="#ffffff" y="-80.999999" height="971.999992" fill-opacity="1"/><rect x="-144" width="1728" fill="#ffffff" y="-80.999999" height="971.999992" fill-opacity="1"/><rect x="-144" width="1728" fill="#ffffff" y="-80.999999" height="971.999992" fill-opacity="1"/><rect x="-144" width="1728" fill="#ffffff" y="-80.999999" height="971.999992" fill-opacity="1"/><path fill="#cfac6c" d="M 605.605469 106.828125 C 651.566406 48.683594 728.0625 52.773438 728.0625 52.773438 C 728.0625 52.773438 796.6875 48.683594 842.648438 106.828125 C 888.609375 164.976562 904.320312 243.453125 899.285156 319.488281 C 894.253906 395.519531 890.019531 411.1875 909.835938 459.578125 C 929.648438 507.96875 1040.117188 698.402344 934.421875 760.066406 L 512.410156 745.734375 C 382.363281 699.261719 518.601562 507.96875 538.417969 459.578125 C 558.230469 411.1875 554 395.519531 548.964844 319.488281 C 543.933594 243.453125 559.644531 164.976562 605.605469 106.828125 Z M 605.605469 106.828125 " fill-opacity="1" fill-rule="evenodd"/><path fill="#ffe6e6" d="M 747.007812 437.847656 L 774.828125 438.835938 C 774.828125 438.835938 762.035156 504.539062 789.121094 551.089844 L 741.1875 553.960938 L 741.089844 555.914062 L 724.867188 554.941406 L 708.644531 555.914062 L 708.546875 553.960938 L 660.613281 551.089844 C 687.699219 504.539062 674.90625 438.835938 674.90625 438.835938 L 702.726562 437.847656 L 702.648438 436.269531 L 724.867188 437.058594 L 747.085938 436.269531 Z M 747.007812 437.847656 " fill-opacity="1" fill-rule="evenodd"/><path fill="#9dccff" d="M 646.507812 530.371094 C 646.507812 530.371094 726.039062 567.371094 796.289062 530.800781 L 797.734375 594.199219 L 732.222656 721.703125 L 677.28125 619.875 Z M 646.507812 530.371094 " fill-opacity="1" fill-rule="evenodd"/><path fill="#424e70" d="M 672.808594 497.023438 C 674.128906 496.992188 674.761719 497.050781 674.761719 497.050781 L 727.226562 685.933594 L 773.933594 497.429688 C 773.933594 497.429688 775.476562 497.269531 778.75 497.5 C 801.261719 502.226562 831.878906 511.066406 864.125 527.511719 L 864.335938 527.617188 C 928.765625 560.535156 933.5625 561.179688 948.726562 607.636719 L 948.765625 607.761719 L 948.777344 607.800781 L 948.808594 607.890625 L 948.820312 607.933594 L 948.847656 608.019531 L 948.863281 608.0625 L 948.894531 608.160156 L 948.902344 608.191406 L 948.945312 608.320312 L 948.953125 608.351562 L 948.984375 608.449219 L 949 608.492188 L 949.027344 608.582031 L 949.042969 608.628906 L 949.070312 608.71875 L 949.082031 608.757812 L 949.125 608.890625 L 949.125 608.894531 L 949.164062 609.019531 L 949.179688 609.0625 L 949.207031 609.152344 L 949.222656 609.203125 L 949.25 609.289062 L 949.261719 609.335938 L 949.292969 609.441406 L 949.304688 609.46875 L 949.34375 609.605469 L 949.355469 609.640625 L 949.386719 609.738281 L 949.398438 609.785156 L 949.425781 609.875 L 949.441406 609.925781 L 949.46875 610.019531 L 949.484375 610.0625 L 949.523438 610.199219 L 949.527344 610.210938 L 949.5625 610.335938 L 949.578125 610.382812 L 949.605469 610.476562 L 949.621094 610.523438 L 949.648438 610.617188 L 949.660156 610.664062 L 949.695312 610.777344 L 949.703125 610.804688 L 949.742188 610.945312 L 949.753906 610.980469 L 949.785156 611.085938 L 949.800781 611.136719 L 949.828125 611.230469 L 949.839844 611.28125 L 949.871094 611.378906 L 949.882812 611.421875 L 949.921875 611.566406 L 949.925781 611.582031 L 949.964844 611.707031 L 949.976562 611.753906 L 950.003906 611.851562 L 950.019531 611.90625 L 950.046875 612 L 950.0625 612.050781 L 950.09375 612.167969 L 950.101562 612.195312 L 950.144531 612.339844 L 950.152344 612.382812 L 950.183594 612.488281 L 950.199219 612.539062 L 950.226562 612.636719 L 950.242188 612.6875 L 950.269531 612.792969 L 950.28125 612.835938 L 950.320312 612.984375 L 950.328125 613.007812 L 950.363281 613.132812 L 950.375 613.183594 L 950.40625 613.285156 L 950.417969 613.335938 L 950.445312 613.4375 L 950.460938 613.488281 L 950.496094 613.613281 L 950.5 613.640625 L 950.542969 613.789062 L 950.554688 613.832031 L 950.582031 613.941406 L 950.597656 613.996094 L 950.625 614.097656 L 950.640625 614.152344 L 950.667969 614.261719 L 950.679688 614.304688 L 950.71875 614.457031 L 950.726562 614.484375 L 950.761719 614.609375 L 950.777344 614.664062 L 950.804688 614.765625 L 950.816406 614.824219 L 950.84375 614.929688 L 950.859375 614.980469 L 950.894531 615.113281 L 950.898438 615.136719 L 950.941406 615.289062 L 950.953125 615.335938 L 950.980469 615.449219 L 950.996094 615.503906 L 951.023438 615.609375 L 951.039062 615.664062 L 951.066406 615.78125 L 951.078125 615.824219 L 951.121094 615.980469 L 951.128906 616.011719 L 951.160156 616.140625 L 951.175781 616.195312 L 951.203125 616.300781 L 951.214844 616.359375 L 951.242188 616.46875 L 951.257812 616.523438 L 951.292969 616.664062 L 951.296875 616.683594 L 951.339844 616.84375 L 951.351562 616.894531 L 951.378906 617.007812 L 951.394531 617.066406 L 951.421875 617.171875 L 951.4375 617.230469 L 951.464844 617.351562 L 951.476562 617.394531 L 951.515625 617.558594 L 951.527344 617.59375 L 951.558594 617.722656 L 951.574219 617.777344 L 951.597656 617.886719 L 951.613281 617.949219 L 951.640625 618.0625 L 951.65625 618.113281 L 951.691406 618.265625 L 951.695312 618.28125 L 951.738281 618.445312 L 951.75 618.5 L 951.777344 618.613281 L 951.820312 618.785156 L 951.832031 618.847656 L 951.847656 618.90625 L 951.910156 619.160156 L 951.914062 619.179688 L 951.980469 619.445312 L 951.992188 619.5 L 952.054688 619.765625 L 952.0625 619.804688 L 952.125 620.054688 L 952.132812 620.09375 L 952.195312 620.359375 L 952.207031 620.414062 L 952.273438 620.6875 L 952.277344 620.710938 L 952.339844 620.96875 L 952.351562 621.019531 L 952.414062 621.289062 L 952.425781 621.34375 L 952.492188 621.621094 L 952.554688 621.902344 L 952.566406 621.957031 L 952.628906 622.230469 L 952.640625 622.28125 L 952.703125 622.546875 L 952.707031 622.570312 L 952.773438 622.851562 L 952.785156 622.910156 L 952.847656 623.191406 L 952.855469 623.230469 L 952.914062 623.492188 L 952.925781 623.535156 L 952.988281 623.816406 L 953 623.875 L 953.066406 624.164062 L 953.070312 624.183594 L 953.132812 624.460938 L 953.140625 624.511719 L 953.207031 624.796875 L 953.21875 624.851562 L 953.28125 625.144531 L 953.28125 625.148438 L 953.347656 625.445312 L 953.359375 625.5 L 953.421875 625.789062 L 953.433594 625.839844 L 953.492188 626.117188 L 953.5 626.148438 L 953.5625 626.441406 L 953.574219 626.503906 L 953.636719 626.796875 L 953.644531 626.835938 L 953.707031 627.113281 L 953.714844 627.160156 L 953.777344 627.457031 L 953.789062 627.515625 L 953.855469 627.820312 L 953.859375 627.832031 L 953.921875 628.128906 L 953.929688 628.183594 L 953.996094 628.484375 L 954.003906 628.539062 L 954.070312 628.839844 L 954.070312 628.851562 L 954.132812 629.160156 L 954.148438 629.21875 L 954.210938 629.523438 L 954.21875 629.570312 L 954.28125 629.863281 L 954.285156 629.894531 L 954.351562 630.207031 L 954.425781 630.578125 L 954.433594 630.609375 L 954.492188 630.90625 L 954.5 630.953125 L 954.566406 631.265625 L 954.578125 631.324219 L 954.640625 631.644531 L 954.640625 631.652344 L 954.707031 631.96875 L 954.71875 632.023438 L 954.78125 632.335938 L 954.789062 632.390625 L 954.855469 632.707031 L 954.855469 632.71875 L 954.917969 633.042969 L 954.929688 633.101562 L 954.996094 633.421875 L 955.003906 633.46875 L 955.0625 633.773438 L 955.070312 633.808594 L 955.132812 634.132812 L 955.144531 634.195312 L 955.210938 634.519531 L 955.214844 634.546875 L 955.273438 634.859375 L 955.285156 634.910156 L 955.347656 635.234375 L 955.359375 635.292969 L 955.421875 635.628906 L 955.488281 635.964844 L 955.5 636.019531 L 955.5625 636.351562 L 955.570312 636.402344 L 955.632812 636.730469 L 955.636719 636.746094 L 955.695312 637.042969 L 955.753906 637.351562 L 955.773438 637.46875 L 955.851562 637.882812 L 955.875 638 L 955.933594 638.308594 L 955.960938 638.46875 L 956.011719 638.742188 L 956.042969 638.902344 L 956.097656 639.1875 L 956.121094 639.335938 L 956.199219 639.738281 L 956.203125 639.761719 L 956.207031 639.789062 L 956.28125 640.191406 L 956.308594 640.339844 L 956.359375 640.625 L 956.390625 640.789062 L 956.441406 641.070312 L 956.472656 641.230469 L 956.527344 641.546875 L 956.550781 641.667969 L 956.652344 642.226562 L 956.707031 642.539062 L 956.738281 642.703125 L 956.789062 642.984375 L 956.816406 643.152344 L 956.871094 643.445312 L 956.898438 643.597656 L 956.972656 644.027344 L 956.976562 644.035156 L 956.984375 644.089844 L 957.054688 644.476562 L 957.082031 644.636719 L 957.132812 644.925781 L 957.164062 645.101562 L 957.214844 645.386719 L 957.242188 645.554688 L 957.300781 645.882812 L 957.320312 646.007812 L 957.398438 646.445312 L 957.421875 646.585938 L 957.476562 646.898438 L 957.507812 647.078125 L 957.558594 647.359375 L 957.589844 647.535156 L 957.640625 647.832031 L 957.742188 648.441406 L 957.757812 648.519531 L 957.820312 648.894531 L 957.851562 649.066406 L 957.898438 649.355469 L 957.933594 649.542969 L 957.980469 649.828125 L 958.011719 650.003906 L 958.0625 650.339844 L 958.089844 650.46875 L 958.164062 650.917969 L 958.1875 651.074219 L 958.242188 651.382812 L 958.273438 651.566406 L 958.320312 651.855469 L 958.351562 652.046875 L 958.40625 652.339844 L 958.429688 652.511719 L 958.503906 652.964844 L 958.523438 653.078125 L 958.582031 653.429688 L 958.613281 653.613281 L 958.660156 653.902344 L 958.695312 654.101562 L 958.738281 654.390625 L 958.773438 654.574219 L 958.824219 654.914062 L 958.851562 655.046875 L 958.921875 655.507812 L 958.949219 655.675781 L 959.003906 655.984375 L 959.035156 656.183594 L 959.082031 656.464844 L 959.113281 656.660156 L 959.160156 656.964844 L 959.1875 657.140625 L 959.265625 657.605469 L 959.285156 657.738281 L 959.335938 658.078125 L 959.371094 658.277344 L 959.414062 658.566406 L 959.449219 658.769531 L 959.492188 659.058594 L 959.527344 659.253906 L 959.578125 659.589844 L 959.605469 659.742188 L 959.675781 660.199219 L 959.703125 660.390625 L 959.75 660.6875 L 959.78125 660.894531 L 959.828125 661.179688 L 959.863281 661.386719 L 959.90625 661.691406 L 959.941406 661.875 L 960.011719 662.339844 L 960.039062 662.496094 L 960.085938 662.832031 L 960.117188 663.035156 L 960.164062 663.324219 L 960.195312 663.542969 L 960.242188 663.824219 L 960.273438 664.035156 L 960.328125 664.367188 L 960.347656 664.527344 L 960.417969 664.992188 L 960.453125 665.195312 L 960.496094 665.484375 L 960.53125 665.707031 L 960.578125 665.984375 L 960.609375 666.207031 L 960.65625 666.503906 L 960.679688 666.707031 L 960.753906 667.171875 L 960.78125 667.355469 L 960.832031 667.671875 L 960.863281 667.894531 L 960.902344 668.171875 L 960.9375 668.398438 L 960.984375 668.675781 L 961.015625 668.898438 L 961.0625 669.226562 L 961.089844 669.390625 L 961.101562 669.46875 L 961.160156 669.871094 L 961.191406 670.085938 L 961.230469 670.371094 L 961.273438 670.605469 L 961.3125 670.882812 L 961.34375 671.109375 L 961.390625 671.398438 L 961.414062 671.617188 L 961.488281 672.089844 L 961.519531 672.292969 L 961.558594 672.589844 L 961.597656 672.824219 L 961.640625 673.101562 L 961.671875 673.335938 L 961.710938 673.613281 L 961.742188 673.84375 L 961.789062 674.15625 L 961.816406 674.339844 L 961.835938 674.472656 L 961.886719 674.828125 L 961.921875 675.0625 L 961.960938 675.332031 L 962 675.582031 L 962.039062 675.84375 L 962.070312 676.085938 L 962.109375 676.371094 L 962.144531 676.597656 L 962.214844 677.070312 L 962.25 677.300781 L 962.289062 677.585938 L 962.320312 677.832031 L 962.359375 678.097656 L 962.398438 678.347656 L 962.433594 678.609375 L 962.472656 678.859375 L 962.511719 679.160156 L 962.542969 679.355469 L 962.570312 679.539062 L 962.609375 679.84375 L 962.648438 680.097656 L 962.683594 680.359375 L 962.722656 680.617188 L 962.753906 680.875 L 962.832031 681.398438 L 962.867188 681.648438 L 962.929688 682.121094 L 962.96875 682.375 L 963.003906 682.632812 L 963.042969 682.902344 L 963.074219 683.152344 L 963.113281 683.421875 L 963.148438 683.671875 L 963.226562 684.203125 L 963.253906 684.429688 L 963.285156 684.660156 L 963.324219 684.925781 L 963.363281 685.199219 L 963.398438 685.441406 L 963.4375 685.71875 L 963.46875 685.960938 L 963.507812 686.238281 L 963.542969 686.480469 L 963.574219 686.753906 L 963.585938 686.808594 L 963.640625 687.222656 L 963.679688 687.503906 L 963.710938 687.742188 L 963.75 688.023438 L 963.785156 688.257812 L 963.824219 688.542969 L 963.855469 688.777344 L 963.894531 689.066406 L 963.921875 689.289062 L 963.960938 689.550781 L 963.992188 689.828125 L 964.027344 690.050781 L 964.066406 690.339844 L 964.097656 690.570312 L 964.136719 690.867188 L 964.171875 691.089844 L 964.210938 691.382812 L 964.234375 691.601562 L 964.277344 691.894531 L 964.335938 692.304688 L 964.339844 692.367188 L 964.378906 692.671875 L 964.40625 692.886719 L 964.453125 693.1875 L 964.480469 693.40625 L 964.519531 693.707031 L 964.550781 693.925781 L 964.589844 694.234375 L 964.609375 694.402344 L 964.65625 694.71875 L 964.695312 695.027344 L 964.722656 695.210938 L 964.761719 695.527344 L 964.789062 695.738281 L 964.832031 696.046875 L 964.859375 696.253906 L 964.898438 696.5625 L 964.925781 696.753906 L 964.964844 697.074219 C 964.984375 697.234375 965.011719 697.390625 965.03125 697.546875 L 965.070312 697.875 L 965.09375 698.066406 L 965.140625 698.390625 L 965.167969 698.585938 L 965.207031 698.90625 L 965.234375 699.097656 L 965.273438 699.433594 L 965.285156 699.519531 L 965.339844 699.910156 L 965.382812 700.261719 L 965.402344 700.40625 L 965.441406 700.738281 L 965.515625 701.257812 L 965.535156 701.441406 L 965.582031 701.777344 L 965.601562 701.925781 L 965.648438 702.28125 C 965.667969 702.441406 965.6875 702.597656 965.707031 702.753906 L 965.75 703.109375 L 965.769531 703.273438 L 965.816406 703.609375 L 965.84375 703.785156 L 965.882812 704.125 L 965.902344 704.289062 L 965.949219 704.652344 C 965.972656 704.808594 965.992188 704.96875 966.015625 705.125 L 966.058594 705.503906 L 966.074219 705.617188 L 966.117188 705.972656 L 966.136719 706.136719 L 966.183594 706.484375 L 966.203125 706.648438 L 966.25 707.007812 L 966.261719 707.113281 L 966.316406 707.5 C 966.335938 707.660156 966.355469 707.816406 966.375 707.972656 L 966.421875 708.347656 L 966.441406 708.484375 L 966.484375 708.847656 L 966.503906 709.003906 L 966.550781 709.367188 L 966.566406 709.492188 L 966.617188 709.871094 L 966.730469 710.808594 L 966.734375 710.828125 L 966.847656 711.75 L 966.859375 711.808594 L 966.972656 712.726562 L 967.082031 713.644531 L 967.089844 713.691406 L 967.207031 714.609375 L 967.207031 714.652344 L 967.324219 715.578125 L 967.4375 716.496094 L 967.445312 716.546875 L 967.554688 717.472656 C 967.59375 717.789062 967.632812 718.105469 967.671875 718.417969 L 967.785156 719.34375 L 967.792969 719.398438 L 967.902344 720.316406 L 968.019531 721.261719 L 968.019531 721.269531 L 968.132812 722.195312 L 968.140625 722.234375 L 968.25 723.160156 L 968.363281 724.089844 L 968.363281 724.109375 L 968.472656 725.042969 L 968.472656 725.050781 L 968.585938 725.988281 L 968.695312 726.921875 L 968.703125 726.945312 L 968.808594 727.871094 C 968.847656 728.1875 968.886719 728.503906 968.917969 728.8125 L 969.03125 729.742188 L 969.039062 729.761719 C 969.621094 734.71875 970.183594 739.636719 970.730469 744.457031 L 970.789062 744.949219 L 970.847656 745.472656 L 970.914062 746.070312 L 970.953125 746.40625 L 971.003906 746.925781 L 971.0625 747.402344 L 971.125 747.941406 L 971.175781 748.414062 L 971.234375 748.953125 L 971.289062 749.414062 L 971.347656 749.957031 L 971.398438 750.417969 L 971.457031 750.921875 L 971.511719 751.402344 L 971.554688 751.855469 L 971.617188 752.398438 L 971.667969 752.847656 L 971.726562 753.398438 L 971.777344 753.832031 L 971.839844 754.382812 L 971.882812 754.808594 L 971.941406 755.367188 L 971.976562 755.675781 L 972.042969 756.261719 L 972.101562 756.8125 L 972.148438 757.21875 L 972.207031 757.777344 L 972.25 758.191406 L 972.3125 758.742188 L 972.355469 759.148438 L 972.414062 759.707031 L 972.460938 760.074219 L 972.519531 760.625 L 972.578125 761.203125 L 972.613281 761.519531 L 972.679688 762.089844 L 972.71875 762.46875 L 972.777344 763.035156 L 972.816406 763.414062 L 972.882812 763.980469 L 972.921875 764.339844 L 972.980469 764.917969 C 973.011719 765.203125 973.039062 765.484375 973.070312 765.765625 L 973.128906 766.34375 L 973.167969 766.679688 L 973.230469 767.25 L 973.269531 767.605469 L 973.328125 768.167969 L 973.359375 768.515625 L 973.425781 769.089844 L 973.453125 769.34375 L 973.515625 769.953125 L 973.582031 770.589844 L 973.601562 770.800781 L 973.667969 771.386719 L 973.699219 771.707031 L 973.761719 772.273438 L 973.792969 772.601562 L 973.851562 773.171875 L 973.886719 773.453125 L 973.945312 774.042969 C 973.96875 774.3125 974.003906 774.582031 974.027344 774.851562 L 974.089844 775.449219 L 974.121094 775.710938 L 974.179688 776.285156 L 974.210938 776.585938 L 974.265625 777.148438 L 974.296875 777.4375 L 974.355469 778.023438 L 974.371094 778.15625 L 974.441406 778.824219 L 974.507812 779.5 L 974.519531 779.617188 L 974.585938 780.203125 L 974.613281 780.472656 L 974.671875 781.035156 L 974.699219 781.304688 L 974.757812 781.875 L 974.777344 782.085938 L 974.835938 782.683594 C 974.863281 782.933594 974.886719 783.191406 974.914062 783.4375 L 974.972656 784.042969 L 975 784.242188 L 975.050781 784.8125 L 975.078125 785.054688 L 975.136719 785.617188 L 975.15625 785.835938 L 975.214844 786.425781 L 975.296875 787.160156 L 975.359375 787.84375 L 975.367188 787.898438 L 975.425781 788.476562 L 975.445312 788.683594 L 975.503906 789.242188 L 975.523438 789.453125 L 975.582031 790.015625 L 975.597656 790.15625 L 975.65625 790.753906 C 975.675781 790.988281 975.703125 791.226562 975.726562 791.457031 L 975.785156 792.046875 L 975.800781 792.191406 L 975.851562 792.742188 L 975.925781 793.484375 L 975.945312 793.648438 L 975.996094 794.210938 C 976.023438 794.441406 976.042969 794.664062 976.070312 794.890625 L 976.132812 795.558594 L 976.1875 796.121094 L 976.207031 796.28125 L 976.257812 796.8125 L 976.273438 796.976562 L 976.324219 797.519531 L 976.332031 797.59375 L 976.390625 798.183594 C 976.410156 798.394531 976.4375 798.609375 976.457031 798.820312 L 976.507812 799.378906 L 976.523438 799.484375 L 976.566406 800.003906 L 976.585938 800.160156 L 976.632812 800.671875 L 976.644531 800.789062 L 976.699219 801.324219 C 976.738281 801.730469 976.777344 802.128906 976.816406 802.539062 L 976.929688 803.699219 L 976.933594 803.757812 L 977.046875 804.886719 L 977.152344 806.003906 L 977.15625 806.035156 L 977.261719 807.121094 L 977.261719 807.152344 L 977.359375 808.214844 L 977.460938 809.238281 L 977.464844 809.285156 L 977.5625 810.289062 L 471.671875 810.289062 L 471.765625 809.285156 L 471.773438 809.238281 L 471.871094 808.214844 L 471.972656 807.152344 L 471.976562 807.121094 L 472.078125 806.035156 L 472.082031 806.003906 L 472.191406 804.886719 L 472.296875 803.757812 L 472.304688 803.699219 L 472.417969 802.539062 C 472.457031 802.128906 472.496094 801.730469 472.535156 801.324219 L 472.585938 800.789062 L 472.597656 800.671875 L 472.648438 800.160156 L 472.664062 800.003906 L 472.714844 799.484375 L 472.726562 799.378906 L 472.777344 798.820312 C 472.800781 798.609375 472.820312 798.394531 472.84375 798.183594 L 472.898438 797.59375 L 472.90625 797.519531 L 472.960938 796.976562 L 472.976562 796.8125 L 473.03125 796.28125 L 473.046875 796.121094 L 473.101562 795.558594 L 473.167969 794.890625 C 473.1875 794.664062 473.210938 794.441406 473.234375 794.210938 L 473.289062 793.648438 L 473.308594 793.484375 L 473.359375 792.9375 L 473.378906 792.742188 L 473.4375 792.191406 L 473.449219 792.046875 L 473.507812 791.457031 C 473.53125 791.226562 473.554688 790.988281 473.578125 790.753906 L 473.640625 790.15625 L 473.652344 790.015625 L 473.710938 789.453125 L 473.730469 789.242188 L 473.785156 788.683594 L 473.808594 788.476562 L 473.867188 787.898438 L 473.871094 787.84375 L 473.941406 787.160156 L 474.015625 786.425781 L 474.074219 785.835938 L 474.097656 785.617188 L 474.15625 785.054688 L 474.179688 784.8125 L 474.238281 784.242188 L 474.257812 784.042969 L 474.320312 783.4375 C 474.34375 783.191406 474.371094 782.933594 474.394531 782.683594 L 474.457031 782.085938 L 474.480469 781.875 L 474.539062 781.304688 L 474.566406 781.035156 L 474.625 780.472656 L 474.652344 780.203125 L 474.722656 779.5 L 474.792969 778.824219 L 474.863281 778.15625 L 474.875 778.023438 L 474.9375 777.4375 L 474.964844 777.148438 L 475.023438 776.585938 L 475.054688 776.285156 L 475.117188 775.710938 L 475.144531 775.449219 L 475.203125 774.851562 C 475.234375 774.582031 475.261719 774.3125 475.289062 774.042969 L 475.351562 773.453125 L 475.382812 773.171875 L 475.441406 772.601562 L 475.476562 772.273438 L 475.535156 771.707031 L 475.570312 771.386719 L 475.628906 770.800781 L 475.652344 770.589844 L 475.71875 769.953125 L 475.785156 769.34375 L 475.808594 769.089844 L 475.871094 768.515625 L 475.90625 768.167969 L 475.96875 767.605469 L 476.007812 767.25 L 476.066406 766.679688 L 476.101562 766.34375 L 476.164062 765.765625 C 476.195312 765.484375 476.226562 765.203125 476.253906 764.917969 L 476.316406 764.339844 L 476.355469 763.980469 L 476.414062 763.414062 L 476.457031 763.035156 L 476.515625 762.46875 L 476.558594 762.089844 L 476.621094 761.519531 L 476.65625 761.203125 L 476.714844 760.625 L 476.777344 760.074219 L 476.816406 759.707031 L 476.875 759.148438 L 476.921875 758.742188 L 476.980469 758.191406 L 477.027344 757.777344 L 477.085938 757.21875 L 477.132812 756.8125 L 477.191406 756.261719 L 477.257812 755.675781 L 477.289062 755.367188 L 477.351562 754.808594 L 477.398438 754.382812 L 477.457031 753.832031 L 477.507812 753.398438 L 477.566406 752.847656 L 477.617188 752.398438 L 477.675781 751.855469 L 477.726562 751.402344 L 477.777344 750.921875 L 477.835938 750.417969 L 477.886719 749.957031 L 477.945312 749.414062 L 478 748.953125 L 478.058594 748.414062 L 478.113281 747.941406 L 478.171875 747.402344 L 478.226562 746.925781 L 478.285156 746.40625 L 478.320312 746.070312 L 478.390625 745.472656 L 478.449219 744.949219 L 478.503906 744.457031 C 479.050781 739.636719 479.613281 734.726562 480.199219 729.761719 L 480.203125 729.742188 L 480.3125 728.8125 C 480.347656 728.503906 480.386719 728.1875 480.421875 727.871094 L 480.535156 726.945312 L 480.535156 726.921875 L 480.648438 725.988281 L 480.757812 725.050781 L 480.757812 725.042969 L 480.871094 724.109375 L 480.875 724.089844 L 480.988281 723.160156 L 481.097656 722.234375 L 481.101562 722.195312 L 481.214844 721.269531 L 481.214844 721.261719 L 481.328125 720.316406 L 481.441406 719.398438 L 481.449219 719.34375 L 481.5625 718.417969 C 481.597656 718.105469 481.636719 717.789062 481.675781 717.472656 L 481.789062 716.546875 L 481.796875 716.496094 L 481.910156 715.578125 L 482.023438 714.652344 L 482.03125 714.609375 L 482.144531 713.691406 L 482.148438 713.644531 L 482.265625 712.726562 L 482.378906 711.808594 L 482.386719 711.75 L 482.5 710.828125 L 482.503906 710.808594 L 482.621094 709.871094 L 482.667969 709.492188 L 482.683594 709.367188 L 482.730469 709.003906 L 482.75 708.847656 L 482.796875 708.484375 L 482.8125 708.347656 L 482.859375 707.972656 C 482.878906 707.816406 482.898438 707.660156 482.921875 707.5 L 482.96875 707.113281 L 482.984375 707.007812 L 483.027344 706.648438 L 483.050781 706.484375 L 483.09375 706.136719 L 483.113281 705.972656 L 483.160156 705.617188 L 483.175781 705.503906 L 483.222656 705.125 C 483.242188 704.96875 483.261719 704.808594 483.285156 704.652344 L 483.328125 704.289062 L 483.351562 704.125 L 483.394531 703.785156 L 483.417969 703.609375 L 483.460938 703.273438 L 483.480469 703.109375 L 483.527344 702.753906 C 483.546875 702.597656 483.566406 702.441406 483.589844 702.28125 L 483.632812 701.925781 L 483.652344 701.777344 L 483.695312 701.441406 L 483.722656 701.257812 L 483.765625 700.929688 L 483.789062 700.738281 L 483.832031 700.40625 L 483.851562 700.261719 L 483.894531 699.910156 L 483.949219 699.519531 L 483.957031 699.433594 L 484 699.097656 L 484.027344 698.90625 L 484.070312 698.585938 L 484.09375 698.390625 L 484.136719 698.066406 L 484.160156 697.875 L 484.207031 697.546875 C 484.226562 697.390625 484.246094 697.234375 484.265625 697.074219 L 484.308594 696.753906 L 484.335938 696.5625 L 484.375 696.253906 L 484.402344 696.046875 L 484.445312 695.738281 L 484.472656 695.527344 L 484.515625 695.210938 L 484.539062 695.027344 L 484.582031 694.71875 L 484.621094 694.402344 L 484.644531 694.234375 L 484.6875 693.925781 L 484.714844 693.707031 L 484.753906 693.40625 L 484.785156 693.1875 L 484.824219 692.886719 L 484.851562 692.671875 L 484.894531 692.367188 L 484.902344 692.304688 L 484.996094 691.601562 L 485.027344 691.382812 L 485.066406 691.089844 L 485.097656 690.867188 L 485.136719 690.570312 L 485.167969 690.339844 L 485.207031 690.050781 L 485.238281 689.828125 L 485.273438 689.550781 L 485.308594 689.289062 L 485.339844 689.066406 L 485.378906 688.777344 L 485.414062 688.542969 L 485.449219 688.257812 L 485.484375 688.023438 L 485.523438 687.742188 L 485.554688 687.503906 L 485.59375 687.222656 L 485.648438 686.808594 L 485.695312 686.480469 L 485.730469 686.238281 L 485.765625 685.960938 L 485.800781 685.71875 L 485.839844 685.441406 L 485.871094 685.199219 L 485.910156 684.925781 L 485.945312 684.660156 L 485.980469 684.429688 L 486.011719 684.203125 L 486.046875 683.9375 L 486.085938 683.671875 L 486.121094 683.421875 L 486.15625 683.152344 L 486.191406 682.902344 L 486.230469 682.632812 L 486.265625 682.375 L 486.300781 682.121094 L 486.367188 681.648438 L 486.402344 681.398438 L 486.441406 681.136719 L 486.476562 680.875 L 486.511719 680.617188 L 486.550781 680.359375 L 486.585938 680.097656 L 486.621094 679.84375 L 486.667969 679.539062 L 486.691406 679.355469 L 486.71875 679.160156 L 486.761719 678.859375 L 486.796875 678.609375 L 486.835938 678.347656 L 486.871094 678.097656 L 486.910156 677.832031 L 486.945312 677.585938 L 486.984375 677.300781 L 487.019531 677.070312 L 487.085938 676.597656 L 487.121094 676.371094 L 487.160156 676.085938 L 487.195312 675.84375 L 487.234375 675.582031 L 487.269531 675.332031 L 487.308594 675.0625 L 487.34375 674.828125 L 487.394531 674.472656 L 487.414062 674.339844 L 487.441406 674.15625 L 487.488281 673.84375 L 487.523438 673.613281 L 487.5625 673.335938 L 487.597656 673.101562 L 487.636719 672.824219 L 487.671875 672.589844 L 487.714844 672.292969 L 487.746094 672.089844 L 487.816406 671.617188 L 487.847656 671.398438 L 487.890625 671.109375 L 487.925781 670.882812 L 487.964844 670.605469 L 488 670.371094 L 488.042969 670.085938 L 488.074219 669.871094 L 488.136719 669.46875 L 488.144531 669.390625 L 488.171875 669.226562 L 488.21875 668.898438 L 488.253906 668.675781 L 488.296875 668.398438 L 488.328125 668.171875 L 488.371094 667.894531 L 488.40625 667.671875 L 488.453125 667.355469 L 488.480469 667.171875 L 488.550781 666.707031 L 488.582031 666.503906 L 488.628906 666.207031 L 488.660156 665.984375 L 488.703125 665.707031 L 488.738281 665.484375 L 488.78125 665.195312 L 488.8125 664.992188 L 488.882812 664.527344 L 488.886719 664.527344 L 488.910156 664.367188 L 488.960938 664.035156 L 488.992188 663.824219 L 489.035156 663.542969 L 489.070312 663.324219 L 489.113281 663.035156 L 489.148438 662.832031 L 489.199219 662.496094 L 489.222656 662.339844 L 489.296875 661.875 L 489.324219 661.691406 L 489.371094 661.386719 L 489.40625 661.179688 L 489.449219 660.894531 L 489.480469 660.6875 L 489.527344 660.390625 L 489.558594 660.199219 L 489.632812 659.742188 L 489.65625 659.589844 L 489.707031 659.253906 L 489.738281 659.058594 L 489.785156 658.769531 L 489.820312 658.566406 L 489.863281 658.277344 L 489.894531 658.078125 L 489.949219 657.738281 L 489.972656 657.605469 L 490.046875 657.140625 L 490.074219 656.964844 L 490.125 656.660156 L 490.15625 656.464844 L 490.203125 656.183594 L 490.234375 655.984375 L 490.285156 655.675781 L 490.3125 655.507812 L 490.386719 655.046875 L 490.40625 654.914062 L 490.464844 654.574219 L 490.492188 654.390625 L 490.542969 654.101562 L 490.574219 653.902344 L 490.621094 653.613281 L 490.652344 653.429688 L 490.710938 653.078125 L 490.726562 652.964844 L 490.804688 652.511719 L 490.832031 652.339844 L 490.882812 652.046875 L 490.914062 651.855469 L 490.960938 651.566406 L 490.992188 651.382812 L 491.042969 651.074219 L 491.070312 650.917969 L 491.144531 650.46875 L 491.167969 650.339844 L 491.222656 650.003906 L 491.253906 649.828125 L 491.304688 649.542969 L 491.335938 649.355469 L 491.382812 649.066406 L 491.414062 648.894531 L 491.476562 648.519531 L 491.492188 648.441406 L 491.59375 647.832031 L 491.648438 647.535156 L 491.675781 647.359375 L 491.726562 647.078125 L 491.757812 646.898438 L 491.8125 646.585938 L 491.835938 646.445312 L 491.914062 646.007812 L 491.933594 645.882812 L 491.992188 645.554688 L 492.019531 645.386719 L 492.070312 645.101562 L 492.101562 644.925781 L 492.152344 644.636719 L 492.179688 644.476562 L 492.25 644.089844 L 492.257812 644.035156 L 492.261719 644.027344 L 492.335938 643.597656 L 492.363281 643.445312 L 492.414062 643.152344 L 492.445312 642.984375 L 492.496094 642.703125 L 492.527344 642.539062 L 492.582031 642.226562 L 492.683594 641.667969 L 492.707031 641.546875 L 492.761719 641.230469 L 492.792969 641.070312 L 492.84375 640.789062 L 492.875 640.625 L 492.925781 640.339844 L 492.953125 640.191406 L 493.027344 639.789062 L 493.03125 639.761719 L 493.035156 639.738281 L 493.109375 639.335938 L 493.140625 639.1875 L 493.191406 638.902344 L 493.222656 638.742188 L 493.273438 638.46875 L 493.300781 638.308594 L 493.359375 638 L 493.382812 637.882812 L 493.460938 637.46875 L 493.484375 637.351562 L 493.539062 637.042969 L 493.597656 636.746094 L 493.601562 636.730469 L 493.664062 636.402344 L 493.671875 636.351562 L 493.734375 636.019531 L 493.746094 635.964844 L 493.808594 635.628906 L 493.875 635.292969 L 493.886719 635.234375 L 493.949219 634.910156 L 493.957031 634.859375 L 494.019531 634.546875 L 494.023438 634.519531 L 494.089844 634.195312 L 494.101562 634.132812 L 494.164062 633.808594 L 494.171875 633.773438 L 494.230469 633.46875 L 494.238281 633.421875 L 494.300781 633.101562 L 494.3125 633.042969 L 494.378906 632.71875 L 494.382812 632.707031 L 494.441406 632.390625 L 494.453125 632.335938 L 494.515625 632.023438 L 494.527344 631.96875 L 494.589844 631.652344 L 494.59375 631.644531 L 494.65625 631.324219 L 494.730469 630.953125 L 494.742188 630.90625 L 494.800781 630.609375 L 494.808594 630.578125 L 494.871094 630.265625 L 494.886719 630.207031 L 494.949219 629.894531 L 494.953125 629.863281 L 495.015625 629.570312 L 495.023438 629.523438 L 495.085938 629.21875 L 495.097656 629.160156 L 495.164062 628.851562 L 495.164062 628.839844 L 495.226562 628.539062 L 495.242188 628.484375 L 495.300781 628.183594 L 495.3125 628.128906 L 495.375 627.832031 L 495.378906 627.820312 L 495.445312 627.515625 L 495.457031 627.457031 L 495.519531 627.160156 L 495.527344 627.113281 L 495.589844 626.835938 L 495.597656 626.796875 L 495.660156 626.503906 L 495.671875 626.441406 L 495.734375 626.148438 L 495.742188 626.117188 L 495.800781 625.839844 L 495.8125 625.789062 L 495.875 625.5 L 495.886719 625.445312 L 495.953125 625.148438 L 495.953125 625.144531 L 496.015625 624.851562 L 496.03125 624.796875 L 496.089844 624.511719 L 496.101562 624.460938 L 496.164062 624.183594 L 496.167969 624.164062 L 496.234375 623.875 L 496.246094 623.816406 L 496.308594 623.535156 L 496.320312 623.492188 L 496.378906 623.230469 L 496.386719 623.191406 L 496.449219 622.910156 L 496.460938 622.851562 L 496.527344 622.570312 L 496.53125 622.546875 L 496.59375 622.28125 L 496.605469 622.230469 L 496.667969 621.957031 L 496.679688 621.902344 L 496.742188 621.621094 L 496.808594 621.34375 L 496.820312 621.289062 L 496.882812 621.019531 L 496.894531 620.96875 L 496.957031 620.710938 L 496.960938 620.6875 L 497.027344 620.414062 L 497.039062 620.359375 L 497.101562 620.09375 L 497.109375 620.054688 L 497.171875 619.804688 L 497.179688 619.765625 L 497.242188 619.5 L 497.257812 619.445312 L 497.320312 619.179688 L 497.324219 619.160156 L 497.386719 618.90625 L 497.398438 618.847656 L 497.457031 618.613281 L 497.484375 618.5 L 497.496094 618.445312 L 497.539062 618.28125 L 497.542969 618.265625 L 497.578125 618.113281 L 497.59375 618.0625 L 497.621094 617.949219 L 497.636719 617.886719 L 497.660156 617.777344 L 497.675781 617.722656 L 497.707031 617.59375 L 497.71875 617.558594 L 497.757812 617.394531 L 497.769531 617.351562 L 497.796875 617.230469 L 497.8125 617.171875 L 497.839844 617.066406 L 497.855469 617.007812 L 497.882812 616.894531 L 497.894531 616.84375 L 497.9375 616.683594 L 497.941406 616.664062 L 497.976562 616.523438 L 497.992188 616.46875 L 498.019531 616.359375 L 498.03125 616.300781 L 498.058594 616.195312 L 498.074219 616.140625 L 498.105469 616.011719 L 498.113281 615.980469 L 498.15625 615.824219 L 498.167969 615.78125 L 498.195312 615.664062 L 498.210938 615.609375 L 498.238281 615.503906 L 498.253906 615.449219 L 498.28125 615.335938 L 498.292969 615.289062 L 498.335938 615.136719 L 498.339844 615.113281 L 498.375 614.980469 L 498.386719 614.929688 L 498.417969 614.824219 L 498.429688 614.765625 L 498.457031 614.664062 L 498.472656 614.609375 L 498.507812 614.484375 L 498.511719 614.457031 L 498.554688 614.304688 L 498.566406 614.261719 L 498.59375 614.152344 L 498.609375 614.097656 L 498.636719 613.996094 L 498.652344 613.941406 L 498.679688 613.832031 L 498.691406 613.789062 L 498.734375 613.640625 L 498.738281 613.613281 L 498.773438 613.488281 L 498.789062 613.4375 L 498.816406 613.335938 L 498.828125 613.285156 L 498.859375 613.183594 L 498.871094 613.132812 L 498.90625 613.007812 L 498.910156 612.984375 L 498.953125 612.835938 L 498.964844 612.792969 L 498.992188 612.6875 L 499.007812 612.636719 L 499.035156 612.539062 L 499.050781 612.488281 L 499.078125 612.382812 L 499.089844 612.339844 L 499.132812 612.195312 L 499.140625 612.167969 L 499.171875 612.050781 L 499.1875 612 L 499.214844 611.90625 L 499.230469 611.851562 L 499.257812 611.753906 L 499.269531 611.707031 L 499.304688 611.582031 L 499.3125 611.566406 L 499.351562 611.421875 L 499.363281 611.378906 L 499.394531 611.28125 L 499.40625 611.230469 L 499.433594 611.136719 L 499.449219 611.085938 L 499.480469 610.980469 L 499.492188 610.945312 L 499.53125 610.804688 L 499.539062 610.777344 L 499.574219 610.664062 L 499.585938 610.617188 L 499.613281 610.523438 L 499.628906 610.476562 L 499.65625 610.382812 L 499.667969 610.335938 L 499.707031 610.210938 L 499.710938 610.199219 L 499.75 610.0625 L 499.765625 610.019531 L 499.792969 609.925781 L 499.808594 609.875 L 499.835938 609.785156 L 499.847656 609.738281 L 499.878906 609.640625 L 499.890625 609.605469 L 499.929688 609.46875 L 499.941406 609.441406 L 499.972656 609.335938 L 499.984375 609.289062 L 500.011719 609.203125 L 500.027344 609.152344 L 500.054688 609.0625 L 500.070312 609.019531 L 500.109375 608.894531 L 500.109375 608.890625 L 500.152344 608.757812 L 500.164062 608.71875 L 500.191406 608.628906 L 500.207031 608.582031 L 500.234375 608.492188 L 500.25 608.449219 L 500.28125 608.351562 L 500.289062 608.320312 L 500.332031 608.191406 L 500.339844 608.160156 L 500.371094 608.0625 L 500.386719 608.019531 L 500.414062 607.933594 L 500.429688 607.890625 L 500.457031 607.800781 L 500.46875 607.761719 L 500.511719 607.636719 C 515.671875 561.179688 520.46875 560.535156 584.898438 527.617188 L 585.101562 527.515625 L 585.277344 527.425781 C 589.417969 525.320312 593.597656 523.300781 597.820312 521.371094 C 609.355469 516.097656 621.191406 511.480469 633.238281 507.515625 C 646.144531 503.269531 659.296875 499.773438 672.609375 497.0625 Z M 672.808594 497.023438 " fill-opacity="1" fill-rule="evenodd"/><path fill="#3a3e4a" d="M 575.847656 810.289062 L 561.511719 610.933594 C 561.511719 647.910156 561.71875 685.015625 563.808594 721.96875 C 565.484375 751.558594 568.367188 781.042969 573.316406 810.289062 Z M 575.847656 810.289062 " fill-opacity="1" fill-rule="evenodd"/><path fill="#3a3e4a" d="M 874.277344 810.289062 L 888.613281 610.933594 C 888.613281 647.910156 888.40625 685.015625 886.3125 721.96875 C 884.636719 751.558594 881.753906 781.042969 876.804688 810.289062 Z M 874.277344 810.289062 " fill-opacity="1" fill-rule="evenodd"/><path fill="#ffe6e6" d="M 841.164062 301.675781 C 841.164062 301.675781 845.0625 273.472656 869.417969 279.835938 C 893.773438 286.199219 882.617188 313.347656 879.597656 324.921875 C 876.582031 336.496094 853.480469 359.1875 840.457031 346.691406 C 827.433594 334.191406 841.164062 301.675781 841.164062 301.675781 Z M 841.164062 301.675781 " fill-opacity="1" fill-rule="evenodd"/><path fill="#ffe6e6" d="M 609.121094 301.675781 C 609.121094 301.675781 605.222656 273.472656 580.867188 279.835938 C 556.515625 286.199219 567.671875 313.347656 570.6875 324.921875 C 573.707031 336.496094 596.804688 359.1875 609.832031 346.691406 C 622.855469 334.191406 609.121094 301.675781 609.121094 301.675781 Z M 609.121094 301.675781 " fill-opacity="1" fill-rule="evenodd"/><path fill="#ffe6e6" d="M 599.410156 306.039062 C 570.253906 141.003906 742.519531 109.605469 743.414062 109.867188 C 790.246094 123.703125 872.304688 184.035156 849.824219 297.53125 C 843.679688 328.539062 840.078125 364.558594 827.507812 391.363281 C 802.183594 445.367188 758.589844 463.1875 724.128906 463.1875 C 689.667969 463.1875 646.679688 441.84375 620.75 391.363281 C 608.429688 367.378906 604.527344 335.007812 599.410156 306.039062 Z M 599.410156 306.039062 " fill-opacity="1" fill-rule="evenodd"/><path fill="#e7cb97" d="M 551.9375 295.019531 C 551.046875 313.808594 550.578125 335.6875 548.671875 356.800781 C 547.394531 370.933594 545.476562 384.71875 542.320312 396.972656 C 538.214844 412.933594 531.175781 431.511719 522.984375 449.578125 C 514.765625 467.707031 505.390625 485.320312 496.621094 499.273438 C 488.855469 511.628906 463.332031 538.164062 453.527344 581.757812 C 447.871094 606.910156 447.410156 637.734375 458.644531 674.789062 C 459.992188 679.230469 460.363281 682.449219 460.984375 684.773438 C 461.582031 687.011719 462.429688 688.59375 463.972656 689.769531 C 465.8125 691.167969 468.898438 691.996094 474.734375 692.265625 C 475.964844 692.328125 477.015625 691.382812 477.078125 690.148438 C 477.140625 688.921875 476.195312 687.863281 474.964844 687.804688 C 470.542969 687.554688 468.136719 687.222656 466.757812 686.144531 C 465.707031 685.332031 465.507812 684.050781 465.148438 682.277344 C 464.695312 680.039062 464.253906 677.15625 463.167969 673.441406 C 452.632812 637.335938 453.320312 607.40625 459.070312 583.035156 C 469.109375 540.484375 494.515625 514.859375 502.238281 502.851562 C 511.300781 488.761719 521.027344 470.953125 529.574219 452.613281 C 538.148438 434.207031 545.535156 415.261719 549.910156 398.972656 C 553.292969 386.363281 555.4375 372.160156 556.910156 357.589844 C 559.050781 336.375 559.753906 314.378906 560.847656 295.488281 C 560.976562 293.027344 559.085938 290.921875 556.625 290.792969 C 554.167969 290.664062 552.066406 292.558594 551.9375 295.019531 Z M 551.9375 295.019531 " fill-opacity="1" fill-rule="evenodd"/><path fill="#e7cb97" d="M 852.824219 267.980469 C 852.863281 267.609375 852.859375 267.222656 852.800781 266.832031 C 852.429688 264.394531 850.152344 262.714844 847.71875 263.085938 C 847.101562 263.183594 843.964844 263.871094 843.894531 267.574219 C 843.886719 267.953125 843.925781 268.746094 844.027344 269.832031 C 844.464844 274.519531 845.980469 285.996094 846.292969 287.664062 C 848.09375 297.253906 848.09375 315.910156 847.101562 334.550781 C 846.109375 353.199219 844.109375 371.832031 841.761719 381.46875 C 835.742188 406.167969 825.371094 427.550781 819.921875 450.511719 C 817.527344 460.613281 816.058594 471.011719 816.265625 482.101562 C 816.820312 511.507812 829.222656 539.675781 846.859375 561.476562 C 867.601562 587.117188 895.542969 603.875 919.613281 603.734375 C 920.84375 603.734375 921.84375 602.734375 921.84375 601.503906 C 921.84375 600.269531 920.84375 599.269531 919.613281 599.269531 C 896.746094 599.136719 870.53125 582.664062 851.101562 558.078125 C 834.511719 537.078125 822.878906 510.089844 822.675781 482.019531 C 822.597656 471.503906 824.113281 461.664062 826.496094 452.113281 C 832.210938 429.210938 842.828125 407.949219 849.132812 383.3125 C 851.667969 373.40625 853.992188 354.234375 855.234375 335.03125 C 856.496094 315.597656 856.617188 296.132812 854.851562 286.105469 C 854.570312 284.507812 853.261719 273.53125 852.894531 269.050781 C 852.863281 268.675781 852.835938 268.234375 852.824219 267.980469 Z M 852.824219 267.980469 " fill-opacity="1" fill-rule="evenodd"/><path fill="#e7cb97" d="M 648.96875 171.1875 C 648.96875 171.1875 675.335938 207.933594 715.386719 229.347656 C 755.4375 250.761719 776.050781 247.800781 776.050781 247.800781 C 776.050781 247.800781 760.882812 238.628906 752.472656 213.289062 C 752.472656 213.289062 796.824219 272.863281 855.273438 279.65625 C 855.273438 279.65625 867.605469 340.820312 847.070312 409.566406 C 822.324219 492.410156 843.714844 519.816406 879.363281 572.1875 C 915.011719 624.5625 948.882812 650.390625 950.523438 697.804688 C 952.160156 745.222656 975.175781 740.242188 985.75 724.03125 C 996.316406 707.824219 1010.964844 669.582031 960.695312 556.597656 C 910.429688 443.613281 893.023438 464.445312 899.785156 360.535156 C 906.546875 256.628906 898.632812 85.738281 765.269531 56.199219 C 631.902344 26.660156 589.929688 122.453125 574.28125 152.75 C 558.632812 183.046875 539.339844 235.460938 542.421875 331.125 C 545.503906 426.785156 552.59375 419.277344 514.652344 494.375 C 476.707031 569.472656 461.371094 590.445312 455.917969 631.070312 C 450.464844 671.695312 448.78125 705.769531 478.703125 731.679688 C 508.621094 757.585938 540.582031 711.78125 548.714844 676.476562 C 556.851562 641.167969 553.703125 566.441406 568.398438 519.328125 C 583.09375 472.21875 603.882812 434.195312 601.996094 384.347656 C 600.113281 334.5 604.8125 249.546875 619.128906 221.746094 C 633.449219 193.945312 648.96875 171.1875 648.96875 171.1875 Z M 648.96875 171.1875 " fill-opacity="1" fill-rule="evenodd"/><path stroke-linecap="round" transform="matrix(0.065591, 0, 0, 0.0656506, 301.203389, -10.736544)" fill-opacity="1" fill="#cfac6c" fill-rule="evenodd" stroke-linejoin="round" d="M 7231.360681 4239.983263 C 7193.960356 4246.468823 7158.346671 4221.478589 7151.55744 4184.112239 C 7144.827763 4146.745889 7169.423837 4110.926554 7206.764607 4103.845987 C 7329.149428 4082.068783 7526.87089 4098.728939 7845.666971 4218.027557 C 7845.666971 4218.027557 7727.093648 4196.845359 7487.028825 4201.367401 C 7404.36696 4202.914415 7317.953152 4224.870121 7231.360681 4239.983263 Z M 7231.360681 4239.983263 " stroke="#cfac6c" stroke-width="85.830002" stroke-opacity="1" stroke-miterlimit="1.5"/><path stroke-linecap="round" transform="matrix(-0.065591, 0, 0, 0.0656506, 1148.029172, -10.736544)" fill-opacity="1" fill="#cfac6c" fill-rule="evenodd" stroke-linejoin="round" d="M 7231.333039 4239.983263 C 7193.932714 4246.468823 7158.319029 4221.478589 7151.589352 4184.112239 C 7144.800122 4146.745889 7169.45575 4110.926554 7206.736965 4103.845987 C 7329.121786 4082.068783 7526.902803 4098.728939 7845.698884 4218.027557 C 7845.698884 4218.027557 7727.125561 4196.845359 7487.001183 4201.367401 C 7404.339318 4202.914415 7317.985065 4224.870121 7231.333039 4239.983263 Z M 7231.333039 4239.983263 " stroke="#cfac6c" stroke-width="85.830002" stroke-opacity="1" stroke-miterlimit="1.5"/><path fill="#a18249" d="M 773.167969 298.164062 L 773.164062 298.164062 C 773.035156 298.101562 773.136719 297.902344 773.292969 297.695312 C 773.332031 297.5 773.351562 297.296875 773.359375 297.089844 C 773.359375 297.019531 773.359375 296.949219 773.355469 296.878906 L 773.386719 296.914062 L 773.652344 297.273438 C 773.550781 297.382812 773.40625 297.539062 773.292969 297.695312 C 773.261719 297.855469 773.21875 298.011719 773.167969 298.164062 C 774.46875 298.789062 774.335938 298.210938 773.652344 297.273438 L 773.78125 297.136719 C 773.78125 297.136719 776.019531 294.617188 776.019531 294.617188 C 777.273438 293.402344 778.765625 292.511719 780.332031 291.765625 C 781.921875 291.003906 783.640625 290.554688 785.378906 290.253906 C 788.746094 289.625 792.109375 290.617188 795.347656 292.054688 C 797.148438 292.851562 798.859375 293.90625 800.566406 294.953125 C 801.324219 295.417969 802.09375 295.851562 802.855469 296.300781 C 804.207031 297.09375 805.523438 297.800781 806.8125 298.589844 C 808.257812 299.480469 809.625 300.132812 810.902344 301.03125 C 812.132812 302.460938 814.292969 302.617188 815.71875 301.382812 C 817.144531 300.148438 817.300781 297.988281 816.066406 296.558594 C 815.375 295.175781 814.632812 293.902344 813.703125 292.515625 C 812.839844 291.226562 811.847656 290.0625 810.738281 288.886719 C 809.667969 287.746094 808.46875 286.71875 807.183594 285.78125 C 805.894531 284.839844 804.484375 284.054688 803.054688 283.355469 C 796.675781 280.226562 789.640625 278.945312 783.128906 280.820312 C 780.632812 281.585938 778.203125 282.597656 776.007812 284.015625 C 773.785156 285.453125 771.738281 287.144531 770.082031 289.230469 C 770.082031 289.230469 767.332031 293.410156 767.332031 293.410156 C 767.277344 293.523438 766.648438 294.925781 766.464844 295.5 C 766.261719 296.125 766.171875 296.582031 766.175781 296.785156 C 766.191406 298.378906 766.828125 299.28125 767.394531 299.710938 C 768.054688 300.214844 768.769531 300.648438 769.691406 300.605469 C 771.296875 300.640625 772.679688 299.613281 773.167969 298.164062 Z M 773.167969 298.164062 " fill-opacity="1" fill-rule="evenodd"/><path fill="#a18249" d="M 675.84375 297.570312 C 675.800781 297.898438 675.78125 298.296875 676.0625 298.164062 C 676.011719 298.011719 675.972656 297.855469 675.941406 297.695312 L 675.882812 297.617188 L 675.84375 297.570312 L 675.859375 297.445312 C 675.867188 297.398438 675.875 297.347656 675.878906 297.296875 L 675.882812 297.257812 C 675.894531 297.40625 675.914062 297.550781 675.941406 297.695312 C 676.097656 297.902344 676.199219 298.101562 676.070312 298.164062 L 676.0625 298.164062 C 676.554688 299.609375 677.9375 300.640625 679.542969 300.605469 C 680.132812 300.632812 683.949219 299.191406 682.769531 295.5 C 682.585938 294.925781 681.953125 293.523438 681.898438 293.410156 C 681.898438 293.410156 679.148438 289.230469 679.148438 289.230469 C 677.492188 287.144531 675.449219 285.453125 673.222656 284.015625 C 671.03125 282.597656 668.601562 281.585938 666.105469 280.820312 C 659.589844 278.945312 652.554688 280.226562 646.179688 283.355469 C 644.75 284.054688 643.339844 284.839844 642.046875 285.78125 C 640.765625 286.71875 639.566406 287.746094 638.492188 288.886719 C 637.386719 290.0625 636.390625 291.226562 635.527344 292.515625 C 634.601562 293.902344 633.855469 295.175781 633.164062 296.558594 C 631.929688 297.988281 632.089844 300.148438 633.511719 301.382812 C 634.941406 302.617188 637.097656 302.460938 638.332031 301.03125 C 639.605469 300.132812 640.972656 299.480469 642.421875 298.589844 C 643.707031 297.800781 645.027344 297.09375 646.378906 296.300781 C 647.140625 295.851562 647.90625 295.417969 648.664062 294.953125 C 650.375 293.90625 652.082031 292.851562 653.882812 292.054688 C 657.125 290.617188 660.484375 289.625 663.851562 290.253906 C 665.589844 290.554688 667.3125 291.003906 668.902344 291.765625 C 670.464844 292.511719 671.960938 293.402344 673.210938 294.617188 C 673.210938 294.617188 675.453125 297.136719 675.453125 297.136719 C 675.46875 297.160156 675.667969 297.355469 675.84375 297.570312 Z M 676.136719 295.664062 C 675.957031 296.101562 675.863281 296.585938 675.875 297.089844 L 675.875 297.101562 C 675.820312 296.507812 675.964844 296.035156 676.136719 295.664062 Z M 678.210938 293.644531 C 677.445312 293.890625 676.816406 294.339844 676.40625 295.136719 L 676.394531 295.15625 C 676.808594 294.46875 677.445312 293.929688 678.210938 293.644531 Z M 678.210938 293.644531 " fill-opacity="1" fill-rule="evenodd"/><path fill="#a18249" d="M 795.9375 281.074219 C 795.660156 281.019531 795.21875 280.925781 795.046875 280.898438 C 792.664062 280.5 791.347656 282.050781 790.976562 282.363281 C 788.996094 284.34375 788.996094 287.554688 790.976562 289.535156 C 791.996094 290.558594 793.347656 291.054688 794.6875 291.015625 C 795.03125 291.042969 795.398438 291.070312 795.457031 291.0625 C 796.347656 290.996094 797.238281 290.914062 798.105469 290.6875 C 798.890625 290.480469 799.664062 290.269531 800.410156 289.96875 C 802.832031 288.976562 805.007812 287.597656 806.636719 285.65625 C 808.199219 283.792969 809.464844 281.660156 810.046875 279.234375 C 810.699219 277.277344 809.640625 275.160156 807.683594 274.507812 C 805.730469 273.855469 803.613281 274.914062 802.960938 276.871094 C 802.46875 278.015625 801.613281 278.921875 800.683594 279.707031 C 799.832031 280.425781 798.753906 280.78125 797.632812 281.027344 Z M 795.9375 281.074219 " fill-opacity="1" fill-rule="evenodd"/><path fill="#a18249" d="M 654.542969 291.015625 C 655.882812 291.054688 657.234375 290.558594 658.257812 289.535156 C 660.234375 287.554688 660.234375 284.34375 658.257812 282.363281 C 657.886719 282.050781 656.566406 280.5 654.183594 280.898438 C 654.011719 280.925781 653.574219 281.019531 653.296875 281.074219 L 651.597656 281.027344 C 650.476562 280.78125 649.398438 280.425781 648.550781 279.707031 C 647.617188 278.921875 646.765625 278.015625 646.269531 276.871094 C 645.621094 274.914062 643.503906 273.855469 641.546875 274.507812 C 639.59375 275.160156 638.535156 277.277344 639.1875 279.234375 C 639.769531 281.660156 641.03125 283.792969 642.597656 285.65625 C 644.226562 287.597656 646.398438 288.976562 648.824219 289.96875 C 649.566406 290.269531 650.34375 290.480469 651.125 290.6875 C 651.996094 290.914062 652.882812 290.996094 653.777344 291.0625 C 653.832031 291.070312 654.203125 291.042969 654.542969 291.015625 Z M 654.542969 291.015625 " fill-opacity="1" fill-rule="evenodd"/><path fill="#a18249" d="M 807.453125 286.667969 L 807.007812 286.480469 L 806.941406 286.566406 L 807.453125 286.667969 C 807.667969 286.757812 807.867188 286.835938 807.867188 286.835938 C 807.867188 286.835938 804.421875 286.097656 803.820312 286.183594 C 802.90625 286.316406 802.273438 286.921875 801.613281 287.417969 C 800.617188 288.167969 799.859375 289.640625 800.175781 292.292969 C 800.714844 294.554688 802.691406 296.101562 804.910156 296.183594 L 805.78125 296.320312 L 809.574219 295.96875 C 811.324219 295.511719 813.09375 294.871094 814.558594 293.710938 C 816.027344 292.546875 817.382812 291.234375 818.152344 289.5625 C 819.234375 287.789062 818.671875 285.472656 816.902344 284.390625 C 815.132812 283.308594 812.816406 283.871094 811.738281 285.640625 C 811.355469 286.128906 810.726562 286.324219 810.152344 286.59375 C 809.578125 286.863281 808.914062 286.820312 808.296875 286.835938 Z M 809.910156 292.695312 C 809.632812 293.542969 809.132812 294.304688 808.46875 294.902344 C 809.175781 294.375 809.699219 293.683594 809.910156 292.695312 Z M 810.121094 291.769531 C 810.226562 291.253906 810.28125 290.648438 810.023438 289.945312 C 810.171875 290.558594 810.199219 291.175781 810.121094 291.769531 Z M 810.121094 291.769531 " fill-opacity="1" fill-rule="evenodd"/><path fill="#a18249" d="M 644.324219 296.183594 C 646.539062 296.101562 648.519531 294.554688 649.058594 292.292969 C 649.375 289.640625 648.613281 288.167969 647.617188 287.417969 C 646.960938 286.921875 646.328125 286.316406 645.414062 286.183594 C 644.8125 286.097656 641.363281 286.835938 641.363281 286.835938 C 641.363281 286.835938 641.5625 286.757812 641.777344 286.667969 L 642.292969 286.566406 C 642.292969 286.566406 642.222656 286.480469 642.222656 286.480469 L 641.777344 286.667969 L 640.9375 286.835938 C 640.316406 286.820312 639.65625 286.863281 639.078125 286.59375 C 638.507812 286.324219 637.875 286.128906 637.496094 285.640625 C 636.414062 283.871094 634.101562 283.308594 632.328125 284.390625 C 630.558594 285.472656 630 287.789062 631.078125 289.5625 C 631.851562 291.234375 633.203125 292.546875 634.675781 293.710938 C 636.136719 294.871094 637.90625 295.511719 639.660156 295.96875 C 639.660156 295.96875 643.449219 296.320312 643.449219 296.320312 Z M 639.320312 292.695312 C 639.53125 293.683594 640.058594 294.375 640.765625 294.902344 C 640.097656 294.304688 639.601562 293.542969 639.320312 292.695312 Z M 639.113281 291.769531 C 639.035156 291.175781 639.0625 290.558594 639.207031 289.945312 C 638.953125 290.648438 639.007812 291.253906 639.113281 291.769531 Z M 639.113281 291.769531 " fill-opacity="1" fill-rule="evenodd"/><path fill="#ffc1c1" d="M 718.792969 356.113281 C 719.832031 353.828125 722.109375 352.363281 724.617188 352.363281 C 727.128906 352.363281 729.40625 353.828125 730.445312 356.113281 C 731.148438 357.65625 731.855469 359.207031 732.523438 360.679688 C 733.425781 362.664062 733.261719 364.96875 732.082031 366.804688 C 730.902344 368.636719 728.875 369.746094 726.695312 369.746094 C 725.324219 369.746094 723.914062 369.746094 722.542969 369.746094 C 720.363281 369.746094 718.332031 368.636719 717.152344 366.804688 C 715.976562 364.96875 715.808594 362.664062 716.714844 360.679688 C 717.382812 359.207031 718.089844 357.65625 718.792969 356.113281 Z M 718.792969 356.113281 " fill-opacity="1" fill-rule="evenodd"/><path fill="#0f7dc8" d="M 802.3125 305.039062 C 802.3125 306.101562 802.226562 307.152344 802.054688 308.195312 C 801.886719 309.238281 801.632812 310.246094 801.296875 311.230469 C 800.960938 312.210938 800.550781 313.140625 800.066406 314.023438 C 799.582031 314.90625 799.027344 315.722656 798.410156 316.472656 C 797.789062 317.226562 797.117188 317.894531 796.390625 318.484375 C 795.664062 319.074219 794.894531 319.574219 794.085938 319.980469 C 793.277344 320.386719 792.445312 320.691406 791.585938 320.898438 C 790.730469 321.105469 789.863281 321.210938 788.988281 321.210938 C 788.113281 321.210938 787.246094 321.105469 786.390625 320.898438 C 785.53125 320.691406 784.699219 320.386719 783.890625 319.980469 C 783.082031 319.574219 782.3125 319.074219 781.585938 318.484375 C 780.859375 317.894531 780.183594 317.226562 779.566406 316.472656 C 778.949219 315.722656 778.394531 314.90625 777.910156 314.023438 C 777.421875 313.140625 777.011719 312.210938 776.679688 311.230469 C 776.34375 310.246094 776.089844 309.238281 775.921875 308.195312 C 775.75 307.152344 775.664062 306.101562 775.664062 305.039062 C 775.664062 303.980469 775.75 302.925781 775.921875 301.886719 C 776.089844 300.84375 776.34375 299.832031 776.679688 298.851562 C 777.011719 297.871094 777.421875 296.941406 777.910156 296.058594 C 778.394531 295.175781 778.949219 294.359375 779.566406 293.605469 C 780.183594 292.855469 780.859375 292.1875 781.585938 291.597656 C 782.3125 291.007812 783.082031 290.507812 783.890625 290.101562 C 784.699219 289.695312 785.53125 289.386719 786.390625 289.179688 C 787.246094 288.972656 788.113281 288.871094 788.988281 288.871094 C 789.863281 288.871094 790.730469 288.972656 791.585938 289.179688 C 792.445312 289.386719 793.277344 289.695312 794.085938 290.101562 C 794.894531 290.507812 795.664062 291.007812 796.390625 291.597656 C 797.117188 292.1875 797.789062 292.855469 798.410156 293.605469 C 799.027344 294.359375 799.582031 295.175781 800.066406 296.058594 C 800.550781 296.941406 800.960938 297.871094 801.296875 298.851562 C 801.632812 299.832031 801.886719 300.84375 802.054688 301.886719 C 802.226562 302.925781 802.3125 303.980469 802.3125 305.039062 Z M 802.3125 305.039062 " fill-opacity="1" fill-rule="nonzero"/><path fill="#0f7dc8" d="M 646.917969 305.039062 C 646.917969 306.101562 647.003906 307.152344 647.175781 308.195312 C 647.34375 309.238281 647.597656 310.246094 647.933594 311.230469 C 648.269531 312.210938 648.679688 313.140625 649.164062 314.023438 C 649.652344 314.90625 650.203125 315.722656 650.820312 316.472656 C 651.441406 317.226562 652.113281 317.894531 652.839844 318.484375 C 653.566406 319.074219 654.335938 319.574219 655.144531 319.980469 C 655.953125 320.386719 656.785156 320.691406 657.644531 320.898438 C 658.5 321.105469 659.367188 321.210938 660.242188 321.210938 C 661.117188 321.210938 661.984375 321.105469 662.84375 320.898438 C 663.699219 320.691406 664.535156 320.386719 665.339844 319.980469 C 666.148438 319.574219 666.917969 319.074219 667.644531 318.484375 C 668.371094 317.894531 669.046875 317.226562 669.664062 316.472656 C 670.28125 315.722656 670.835938 314.90625 671.320312 314.023438 C 671.808594 313.140625 672.21875 312.210938 672.550781 311.230469 C 672.886719 310.246094 673.140625 309.238281 673.3125 308.195312 C 673.480469 307.152344 673.566406 306.101562 673.566406 305.039062 C 673.566406 303.980469 673.480469 302.925781 673.3125 301.886719 C 673.140625 300.84375 672.886719 299.832031 672.550781 298.851562 C 672.21875 297.871094 671.808594 296.941406 671.320312 296.058594 C 670.835938 295.175781 670.28125 294.359375 669.664062 293.605469 C 669.046875 292.855469 668.371094 292.1875 667.644531 291.597656 C 666.917969 291.007812 666.148438 290.507812 665.339844 290.101562 C 664.535156 289.695312 663.699219 289.386719 662.84375 289.179688 C 661.984375 288.972656 661.117188 288.871094 660.242188 288.871094 C 659.367188 288.871094 658.5 288.972656 657.644531 289.179688 C 656.785156 289.386719 655.953125 289.695312 655.144531 290.101562 C 654.335938 290.507812 653.566406 291.007812 652.839844 291.597656 C 652.113281 292.1875 651.441406 292.855469 650.820312 293.605469 C 650.203125 294.359375 649.652344 295.175781 649.164062 296.058594 C 648.679688 296.941406 648.269531 297.871094 647.933594 298.851562 C 647.597656 299.832031 647.34375 300.84375 647.175781 301.886719 C 647.003906 302.925781 646.917969 303.980469 646.917969 305.039062 Z M 646.917969 305.039062 " fill-opacity="1" fill-rule="nonzero"/><path fill="#ffc1c1" d="M 830.398438 346.308594 C 830.398438 346.789062 830.363281 347.265625 830.289062 347.742188 C 830.214844 348.21875 830.105469 348.695312 829.957031 349.164062 C 829.8125 349.632812 829.628906 350.097656 829.410156 350.554688 C 829.191406 351.015625 828.9375 351.464844 828.652344 351.90625 C 828.363281 352.351562 828.042969 352.78125 827.6875 353.203125 C 827.332031 353.628906 826.945312 354.039062 826.527344 354.4375 C 826.109375 354.835938 825.664062 355.21875 825.183594 355.589844 C 824.707031 355.960938 824.203125 356.3125 823.671875 356.652344 C 823.140625 356.992188 822.582031 357.3125 822 357.617188 C 821.417969 357.921875 820.816406 358.203125 820.191406 358.472656 C 819.5625 358.738281 818.917969 358.984375 818.253906 359.210938 C 817.59375 359.433594 816.914062 359.640625 816.21875 359.824219 C 815.523438 360.007812 814.816406 360.167969 814.09375 360.304688 C 813.375 360.445312 812.644531 360.5625 811.90625 360.65625 C 811.171875 360.75 810.425781 360.820312 809.679688 360.867188 C 808.929688 360.914062 808.179688 360.9375 807.425781 360.9375 C 806.671875 360.9375 805.921875 360.914062 805.175781 360.867188 C 804.425781 360.820312 803.683594 360.75 802.945312 360.65625 C 802.207031 360.5625 801.476562 360.445312 800.757812 360.304688 C 800.035156 360.167969 799.328125 360.007812 798.632812 359.824219 C 797.9375 359.640625 797.257812 359.433594 796.597656 359.210938 C 795.933594 358.984375 795.289062 358.738281 794.660156 358.472656 C 794.035156 358.203125 793.433594 357.921875 792.851562 357.617188 C 792.269531 357.3125 791.710938 356.992188 791.179688 356.652344 C 790.648438 356.3125 790.144531 355.960938 789.667969 355.589844 C 789.1875 355.21875 788.742188 354.835938 788.324219 354.4375 C 787.90625 354.039062 787.519531 353.628906 787.164062 353.203125 C 786.808594 352.78125 786.488281 352.351562 786.199219 351.90625 C 785.914062 351.464844 785.660156 351.015625 785.441406 350.554688 C 785.222656 350.097656 785.039062 349.632812 784.894531 349.164062 C 784.746094 348.695312 784.636719 348.21875 784.5625 347.742188 C 784.488281 347.265625 784.453125 346.789062 784.453125 346.308594 C 784.453125 345.832031 784.488281 345.351562 784.5625 344.875 C 784.636719 344.398438 784.746094 343.925781 784.894531 343.457031 C 785.039062 342.988281 785.222656 342.523438 785.441406 342.066406 C 785.660156 341.605469 785.914062 341.15625 786.199219 340.714844 C 786.488281 340.269531 786.808594 339.839844 787.164062 339.414062 C 787.519531 338.992188 787.90625 338.582031 788.324219 338.183594 C 788.742188 337.785156 789.1875 337.402344 789.667969 337.03125 C 790.144531 336.660156 790.648438 336.308594 791.179688 335.96875 C 791.710938 335.628906 792.269531 335.308594 792.851562 335.003906 C 793.433594 334.699219 794.035156 334.414062 794.660156 334.148438 C 795.289062 333.882812 795.933594 333.636719 796.597656 333.410156 C 797.257812 333.183594 797.9375 332.980469 798.632812 332.796875 C 799.328125 332.613281 800.035156 332.453125 800.757812 332.3125 C 801.476562 332.175781 802.207031 332.058594 802.945312 331.964844 C 803.683594 331.871094 804.425781 331.800781 805.175781 331.753906 C 805.921875 331.707031 806.671875 331.683594 807.425781 331.683594 C 808.179688 331.683594 808.929688 331.707031 809.679688 331.753906 C 810.425781 331.800781 811.171875 331.871094 811.90625 331.964844 C 812.644531 332.058594 813.375 332.175781 814.09375 332.3125 C 814.816406 332.453125 815.523438 332.613281 816.21875 332.796875 C 816.914062 332.980469 817.59375 333.183594 818.253906 333.410156 C 818.917969 333.636719 819.5625 333.882812 820.191406 334.148438 C 820.816406 334.414062 821.417969 334.699219 822 335.003906 C 822.582031 335.308594 823.140625 335.628906 823.671875 335.96875 C 824.203125 336.308594 824.707031 336.660156 825.183594 337.03125 C 825.664062 337.402344 826.109375 337.785156 826.527344 338.183594 C 826.945312 338.582031 827.332031 338.992188 827.6875 339.414062 C 828.042969 339.839844 828.363281 340.269531 828.652344 340.714844 C 828.9375 341.15625 829.191406 341.605469 829.410156 342.066406 C 829.628906 342.523438 829.8125 342.988281 829.957031 343.457031 C 830.105469 343.925781 830.214844 344.398438 830.289062 344.875 C 830.363281 345.351562 830.398438 345.832031 830.398438 346.308594 Z M 830.398438 346.308594 " fill-opacity="1" fill-rule="nonzero"/><path fill="#ffc1c1" d="M 618.835938 346.308594 C 618.835938 346.789062 618.871094 347.265625 618.945312 347.742188 C 619.019531 348.21875 619.128906 348.695312 619.277344 349.164062 C 619.425781 349.632812 619.605469 350.097656 619.824219 350.554688 C 620.042969 351.015625 620.296875 351.464844 620.585938 351.90625 C 620.871094 352.351562 621.195312 352.78125 621.550781 353.203125 C 621.902344 353.628906 622.289062 354.039062 622.707031 354.4375 C 623.125 354.835938 623.574219 355.21875 624.050781 355.589844 C 624.527344 355.960938 625.03125 356.3125 625.566406 356.652344 C 626.097656 356.992188 626.652344 357.3125 627.234375 357.617188 C 627.816406 357.921875 628.421875 358.203125 629.046875 358.472656 C 629.671875 358.738281 630.316406 358.984375 630.980469 359.210938 C 631.644531 359.433594 632.324219 359.640625 633.019531 359.824219 C 633.714844 360.007812 634.421875 360.167969 635.140625 360.304688 C 635.859375 360.445312 636.589844 360.5625 637.328125 360.65625 C 638.066406 360.75 638.808594 360.820312 639.558594 360.867188 C 640.308594 360.914062 641.058594 360.9375 641.808594 360.9375 C 642.5625 360.9375 643.3125 360.914062 644.0625 360.867188 C 644.8125 360.820312 645.554688 360.75 646.292969 360.65625 C 647.03125 360.5625 647.757812 360.445312 648.480469 360.304688 C 649.199219 360.167969 649.90625 360.007812 650.601562 359.824219 C 651.296875 359.640625 651.976562 359.433594 652.640625 359.210938 C 653.304688 358.984375 653.949219 358.738281 654.574219 358.472656 C 655.199219 358.203125 655.804688 357.921875 656.386719 357.617188 C 656.964844 357.3125 657.523438 356.992188 658.054688 356.652344 C 658.585938 356.3125 659.09375 355.960938 659.570312 355.589844 C 660.046875 355.21875 660.496094 354.835938 660.914062 354.4375 C 661.332031 354.039062 661.71875 353.628906 662.070312 353.203125 C 662.425781 352.78125 662.746094 352.351562 663.035156 351.90625 C 663.324219 351.464844 663.578125 351.015625 663.796875 350.554688 C 664.015625 350.097656 664.195312 349.632812 664.34375 349.164062 C 664.488281 348.695312 664.601562 348.21875 664.675781 347.742188 C 664.746094 347.265625 664.785156 346.789062 664.785156 346.308594 C 664.785156 345.832031 664.746094 345.351562 664.675781 344.875 C 664.601562 344.398438 664.488281 343.925781 664.34375 343.457031 C 664.195312 342.988281 664.015625 342.523438 663.796875 342.066406 C 663.578125 341.605469 663.324219 341.15625 663.035156 340.714844 C 662.746094 340.269531 662.425781 339.839844 662.070312 339.414062 C 661.71875 338.992188 661.332031 338.582031 660.914062 338.183594 C 660.496094 337.785156 660.046875 337.402344 659.570312 337.03125 C 659.09375 336.660156 658.585938 336.308594 658.054688 335.96875 C 657.523438 335.628906 656.964844 335.308594 656.386719 335.003906 C 655.804688 334.699219 655.199219 334.414062 654.574219 334.148438 C 653.949219 333.882812 653.304688 333.636719 652.640625 333.410156 C 651.976562 333.183594 651.296875 332.980469 650.601562 332.796875 C 649.90625 332.613281 649.199219 332.453125 648.480469 332.3125 C 647.757812 332.175781 647.03125 332.058594 646.292969 331.964844 C 645.554688 331.871094 644.8125 331.800781 644.0625 331.753906 C 643.3125 331.707031 642.5625 331.683594 641.808594 331.683594 C 641.058594 331.683594 640.308594 331.707031 639.558594 331.753906 C 638.808594 331.800781 638.066406 331.871094 637.328125 331.964844 C 636.589844 332.058594 635.859375 332.175781 635.140625 332.3125 C 634.421875 332.453125 633.714844 332.613281 633.019531 332.796875 C 632.324219 332.980469 631.644531 333.183594 630.980469 333.410156 C 630.316406 333.636719 629.671875 333.882812 629.046875 334.148438 C 628.421875 334.414062 627.816406 334.699219 627.234375 335.003906 C 626.652344 335.308594 626.097656 335.628906 625.566406 335.96875 C 625.03125 336.308594 624.527344 336.660156 624.050781 337.03125 C 623.574219 337.402344 623.125 337.785156 622.707031 338.183594 C 622.289062 338.582031 621.902344 338.992188 621.546875 339.414062 C 621.195312 339.839844 620.871094 340.269531 620.585938 340.714844 C 620.296875 341.15625 620.042969 341.605469 619.824219 342.066406 C 619.605469 342.523438 619.425781 342.988281 619.277344 343.457031 C 619.128906 343.925781 619.019531 344.398438 618.945312 344.875 C 618.871094 345.351562 618.835938 345.832031 618.835938 346.308594 Z M 618.835938 346.308594 " fill-opacity="1" fill-rule="nonzero"/><path stroke-linecap="round" transform="matrix(0.065591, 0, 0, 0.0656506, 301.203389, -10.736544)" fill="none" stroke-linejoin="round" d="M 6204.340615 6264.72773 C 6362.696449 6389.381398 6640.757144 6415.799645 6815.073626 6244.259538 " stroke="#ff7c7c" stroke-width="171.64999" stroke-opacity="1" stroke-miterlimit="1.5"/><path fill="#ffffff" d="M 795.359375 299.773438 C 795.359375 300.113281 795.328125 300.453125 795.261719 300.789062 C 795.195312 301.125 795.097656 301.453125 794.972656 301.765625 C 794.84375 302.082031 794.683594 302.382812 794.5 302.667969 C 794.3125 302.953125 794.101562 303.21875 793.863281 303.460938 C 793.625 303.703125 793.367188 303.917969 793.085938 304.109375 C 792.808594 304.296875 792.515625 304.457031 792.203125 304.589844 C 791.894531 304.722656 791.574219 304.820312 791.246094 304.886719 C 790.914062 304.953125 790.582031 304.988281 790.246094 304.988281 C 789.910156 304.988281 789.578125 304.953125 789.25 304.886719 C 788.921875 304.820312 788.601562 304.722656 788.289062 304.589844 C 787.980469 304.457031 787.683594 304.296875 787.40625 304.109375 C 787.128906 303.917969 786.867188 303.703125 786.632812 303.460938 C 786.394531 303.21875 786.183594 302.953125 785.996094 302.667969 C 785.808594 302.382812 785.652344 302.082031 785.523438 301.765625 C 785.394531 301.453125 785.296875 301.125 785.230469 300.789062 C 785.167969 300.453125 785.132812 300.113281 785.132812 299.773438 C 785.132812 299.429688 785.167969 299.089844 785.230469 298.753906 C 785.296875 298.417969 785.394531 298.09375 785.523438 297.777344 C 785.652344 297.460938 785.808594 297.160156 785.996094 296.875 C 786.183594 296.589844 786.394531 296.328125 786.632812 296.085938 C 786.867188 295.84375 787.128906 295.625 787.40625 295.4375 C 787.683594 295.246094 787.980469 295.085938 788.289062 294.953125 C 788.601562 294.824219 788.921875 294.722656 789.25 294.65625 C 789.578125 294.589844 789.910156 294.558594 790.246094 294.558594 C 790.582031 294.558594 790.914062 294.589844 791.246094 294.65625 C 791.574219 294.722656 791.894531 294.824219 792.203125 294.953125 C 792.515625 295.085938 792.808594 295.246094 793.085938 295.4375 C 793.367188 295.625 793.625 295.84375 793.863281 296.085938 C 794.101562 296.328125 794.3125 296.589844 794.5 296.875 C 794.683594 297.160156 794.84375 297.460938 794.972656 297.777344 C 795.097656 298.09375 795.195312 298.417969 795.261719 298.753906 C 795.328125 299.089844 795.359375 299.429688 795.359375 299.773438 Z M 795.359375 299.773438 " fill-opacity="1" fill-rule="nonzero"/><path fill="#ffffff" d="M 667.328125 299.773438 C 667.328125 300.113281 667.296875 300.453125 667.230469 300.789062 C 667.167969 301.125 667.070312 301.453125 666.941406 301.765625 C 666.8125 302.082031 666.65625 302.382812 666.46875 302.667969 C 666.28125 302.953125 666.070312 303.21875 665.832031 303.460938 C 665.59375 303.703125 665.335938 303.917969 665.058594 304.109375 C 664.777344 304.296875 664.484375 304.457031 664.171875 304.589844 C 663.863281 304.722656 663.542969 304.820312 663.214844 304.886719 C 662.886719 304.953125 662.550781 304.988281 662.21875 304.988281 C 661.882812 304.988281 661.546875 304.953125 661.21875 304.886719 C 660.890625 304.820312 660.570312 304.722656 660.261719 304.589844 C 659.949219 304.457031 659.65625 304.296875 659.375 304.109375 C 659.097656 303.917969 658.839844 303.703125 658.601562 303.460938 C 658.363281 303.21875 658.152344 302.953125 657.964844 302.667969 C 657.777344 302.382812 657.621094 302.082031 657.492188 301.765625 C 657.363281 301.453125 657.269531 301.125 657.203125 300.789062 C 657.136719 300.453125 657.105469 300.113281 657.105469 299.773438 C 657.105469 299.429688 657.136719 299.089844 657.203125 298.753906 C 657.269531 298.417969 657.363281 298.09375 657.492188 297.777344 C 657.621094 297.460938 657.777344 297.160156 657.964844 296.875 C 658.152344 296.589844 658.363281 296.328125 658.601562 296.085938 C 658.839844 295.84375 659.097656 295.625 659.375 295.4375 C 659.65625 295.246094 659.949219 295.085938 660.261719 294.953125 C 660.570312 294.824219 660.890625 294.722656 661.21875 294.65625 C 661.546875 294.589844 661.882812 294.558594 662.21875 294.558594 C 662.550781 294.558594 662.886719 294.589844 663.214844 294.65625 C 663.542969 294.722656 663.863281 294.824219 664.171875 294.953125 C 664.484375 295.085938 664.777344 295.246094 665.058594 295.4375 C 665.335938 295.625 665.59375 295.84375 665.832031 296.085938 C 666.070312 296.328125 666.28125 296.589844 666.46875 296.875 C 666.65625 297.160156 666.8125 297.460938 666.941406 297.777344 C 667.070312 298.09375 667.167969 298.417969 667.230469 298.753906 C 667.296875 299.089844 667.328125 299.429688 667.328125 299.773438 Z M 667.328125 299.773438 " fill-opacity="1" fill-rule="nonzero"/></svg>